<svg width="40" height="40" viewBox="0 0 40 40" fill="none" xmlns="http://www.w3.org/2000/svg">
  <!-- Base circle (like BASE logo) -->
  <circle cx="20" cy="20" r="20" fill="#0052FF"/>
  <!-- Inner "B" shape inspired by BASE lettermark + agent node pattern -->
  <path d="M14 10h6c3.314 0 6 2.686 6 6 0 1.88-.867 3.56-2.222 4.656C25.558 21.806 27 23.74 27 26c0 3.866-3.134 7-7 7h-6V10z" fill="white"/>
  <path d="M17 14v5h3c1.657 0 3-1.343 3-3s-1.343-3-3-3h-3z" fill="#0052FF"/>
  <path d="M17 22v7h3c2.21 0 4-1.79 4-4s-1.79-4-4-4h-3z" fill="#0052FF"/>
  <!-- Agent dot (connectivity indicator) -->
  <circle cx="31" cy="9" r="3.5" fill="#00D395" stroke="#0052FF" stroke-width="1"/>
</svg>
